# xmcd CD database file
#
# Track frame offsets:
#	150
#	10910
#	22955
#	33710
#	45140
#	54280
#	67367
#	77145
#	87962
#	100990
#	111280
#	120810
#	127017
#	134230
#	145007
#	156047
#	168545
#	179717
#	191775
#	201380
#	210905
#	222115
#	233432
#	242497
#	251845
#	257470
#	267587
#	276925
#	287642
#	298497
#	309007
#
# Disc length: 4237 seconds
#
# Revision: 0
# Processed by: cddbd v1.5.1PL0 Copyright (c) Steve Scherf et al.
# Submitted via: CDex 1.51
#
DISCID=ce108b1f
DTITLE=Various Artist - Sun Hillbilly
DYEAR=1996
DGENRE=Country
TTITLE0=Slim Rhodes/Take and Give
TTITLE1=Red Hadley/If I had As Much Money As I Have Time
TTITLE2=Malcolm Yelvington/Just Rollin' Along
TTITLE3=Earl Peterson/Boogie Blues
TTITLE4=Doug Poindexter/ My Kind of Carryin' On
TTITLE5=Gene Steele/Daisy Bread Boogie
TTITLE6=Charlie Feathers/Peepin' Eyes
TTITLE7=Jimmy Haggett/No More
TTITLE8=Miller Sisters/Finders Keepers
TTITLE9=Cast King/When You Stop Loving Me
TTITLE10=Ernie Chaffin/My Heart Tells Me
TTITLE11=Ernie Chaffin/No Fool Like An Old Fool
TTITLE12=Mississippi Slim/Try Doin' It Right
TTITLE13=Hardrock Gunter/Gonna Dance All Night Long
TTITLE14=Rhythm Rockers/Fiddle Bop
TTITLE15=Hardrock Gunter/Fallen Angel
TTITLE16=Howard Chandler/Golden Band
TTITLE17=Ramsey Kearney/I've Never Stopped Loving You
TTITLE18=Bill Strength/You Can't Hurt Me Anymore
TTITLE19=Ernie Chaffin/Feelin' Low
TTITLE20=Charlie Feathers/Defrost Your Heart
TTITLE21=Mack Self/Goin' Crazy
TTITLE22=Cast King/Baby Doll
TTITLE23=Charlie Feathers/Runnin' Around
TTITLE24=Ernie Barton/Wedding Bells
TTITLE25=Onie Wheeler/Workin' Shoes (Alt)
TTITLE26=Cast King/Satisfied With Me
TTITLE27=Clyde Leoppard Band/Split Personality
TTITLE28=O.C. Holt/This Train
TTITLE29=Red Williams/My True Love Said Goodbye
TTITLE30=Wayne Perdle/Train of Memories
EXTD=YEAR: 1996
EXTT0=
EXTT1=
EXTT2=
EXTT3=
EXTT4=
EXTT5=
EXTT6=
EXTT7=
EXTT8=
EXTT9=
EXTT10=
EXTT11=
EXTT12=
EXTT13=
EXTT14=
EXTT15=
EXTT16=
EXTT17=
EXTT18=
EXTT19=
EXTT20=
EXTT21=
EXTT22=
EXTT23=
EXTT24=
EXTT25=
EXTT26=
EXTT27=
EXTT28=
EXTT29=
EXTT30=
PLAYORDER=
